<svg xmlns="http://www.w3.org/2000/svg" version="1.1" xmlns:xlink="http://www.w3.org/1999/xlink" xmlns:svgjs="http://svgjs.dev/svgjs" width="1500" height="1500" viewBox="0 0 1500 1500"><rect width="1500" height="1500" fill="#ffffff"></rect><g transform="matrix(0.6666666666666666,0,0,0.6666666666666666,249.88156575703283,577.6575423728813)"><svg viewBox="0 0 172 59" data-background-color="#ffffff" preserveAspectRatio="xMidYMid meet" height="514" width="1500" xmlns="http://www.w3.org/2000/svg" xmlns:xlink="http://www.w3.org/1999/xlink"><g id="tight-bounds" transform="matrix(1,0,0,1,0.02037068979035439,0.1737500000000125)"><svg viewBox="0 0 171.95925862041932 58.652499999999996" height="58.652499999999996" width="171.95925862041932"><g><svg viewBox="0 0 171.95925862041932 58.652499999999996" height="58.652499999999996" width="171.95925862041932"><g><svg viewBox="0 0 171.95925862041932 58.652499999999996" height="58.652499999999996" width="171.95925862041932"><g id="textblocktransform"><svg viewBox="0 0 171.95925862041932 58.652499999999996" height="58.652499999999996" width="171.95925862041932" id="textblock"><g><svg viewBox="0 0 171.95925862041932 58.652499999999996" height="58.652499999999996" width="171.95925862041932"><g><svg><g></g><g></g></svg></g><g><svg><g></g><g><svg></svg></g></svg></g><g id="text-0"><svg viewBox="0 0 171.95925862041932 58.652499999999996" height="58.652499999999996" width="171.95925862041932"><g><svg xmlns="http://www.w3.org/2000/svg" xmlns:xlink="http://www.w3.org/1999/xlink" version="1.1" x="0" y="3.552713678800501e-15" viewBox="22.375000000000004 22.499999999999982 55.20018925757495 55.16900000000001" enable-background="new 0 0 100 100" xml:space="preserve" height="58.65249999999999" width="58.68565862041932" class="icon-cg-0" data-fill-palette-color="accent" id="cg-0"><path d="M28.849 77.669c-3.569 0-6.473-2.903-6.473-6.473 0-1.729 0.673-3.354 1.896-4.577l14.634-14.634-3.728-3.726c-0.032-0.025-0.062-0.052-0.092-0.081-0.029-0.029-0.056-0.06-0.081-0.091l-3.982-3.979c-0.026-0.021-0.052-0.044-0.077-0.069-0.024-0.024-0.047-0.05-0.069-0.076l-4.018-4.015c-0.018-0.015-0.035-0.031-0.052-0.048-0.017-0.017-0.033-0.034-0.048-0.051l-4.091-4.087c-0.188-0.188-0.293-0.442-0.293-0.708 0-0.265 0.105-0.52 0.293-0.707l11.553-11.554c0.375-0.375 1.05-0.375 1.425 0l16.231 16.219 9.826-9.826c0.001-0.001 0-0.004 0.002-0.002 0.003-0.001 0.003-0.002 0.003-0.003 0.001 0 0.001 0 0.001 0 0.064-0.064 0.137-0.117 0.212-0.16l10.455-6.173c0.035-0.021 0.072-0.039 0.109-0.056 0.445-0.194 0.919-0.292 1.407-0.292 1.945 0 3.527 1.582 3.527 3.527 0 0.476-0.094 0.938-0.278 1.374-0.022 0.052-0.048 0.101-0.077 0.146L71.031 38.11c-0.045 0.083-0.103 0.161-0.173 0.23-0.077 0.077-0.163 0.139-0.255 0.186-0.679 0.749-2.197 2.267-5.594 5.664l-3.974 3.973 15.847 15.833c0.274 0.089 0.503 0.294 0.617 0.569 0.155 0.374 0.069 0.804-0.217 1.09L65.73 77.208c-0.188 0.188-0.441 0.293-0.707 0.293h-0.168c-0.265 0-0.52-0.105-0.707-0.293L48.063 61.136 33.426 75.773C32.202 76.996 30.577 77.669 28.849 77.669zM25.058 68.819c-0.444 0.705-0.682 1.522-0.682 2.377 0 2.466 2.006 4.473 4.473 4.473 0.854 0 1.671-0.237 2.377-0.682L25.058 68.819zM62.234 72.469l2.705 2.702 10.145-10.146L59.622 49.577 49.478 59.722l3.061 3.059 3.395-3.395c0.391-0.391 1.023-0.391 1.414 0s0.391 1.023 0 1.414l-3.394 3.394 2.726 2.724 3.393-3.393c0.391-0.391 1.023-0.391 1.414 0s0.391 1.023 0 1.414l-3.393 3.393 2.727 2.724 3.391-3.391c0.391-0.391 1.023-0.391 1.414 0s0.391 1.023 0 1.414L62.234 72.469zM26.393 67.326l6.326 6.326c4.695-4.695 31.327-31.327 36.019-36.019l-6.326-6.326L26.393 67.326zM37.213 47.466l3.107 3.104 10.144-10.144L34.935 24.909 24.791 35.053l2.727 2.725 3.325-3.325c0.391-0.391 1.023-0.391 1.414 0s0.391 1.023 0 1.414l-3.324 3.324 2.726 2.724 3.323-3.323c0.391-0.391 1.023-0.391 1.414 0s0.391 1.023 0 1.414l-3.322 3.323 2.726 2.724 3.322-3.321c0.391-0.391 1.023-0.391 1.414 0s0.391 1.023 0 1.414L37.213 47.466zM64.03 30.099L69.933 36l2.984-5.224-3.725-3.726L64.03 30.099zM70.971 26.001l2.975 2.975 1.377-2.41c0.065-0.172 0.099-0.353 0.099-0.539 0-0.842-0.686-1.527-1.527-1.527-0.194 0-0.382 0.035-0.559 0.105L70.971 26.001z" fill="#000000" data-fill-palette-color="accent"></path></svg></g><g transform="matrix(1,0,0,1,72.53315862041931,0)"><svg width="99.4261" viewBox="4.45 -36.25 61.45 36.25" height="58.652499999999996" data-palette-color="#000000"><path d="M32.7 0L25.95 0Q24.2-2.25 22.6-4.3 21-6.35 19.45-8.4 17.9-10.45 16.32-12.55 14.75-14.65 13-16.9L13-16.9Q12.35-16.2 11.75-15.63 11.15-15.05 10.45-14.45L10.45-14.45Q10.45-10.6 10.48-7.23 10.5-3.85 10.5 0L10.5 0 4.45 0 4.45-36.25 10.5-36.25 10.5-22.7Q10.5-22.25 10.43-21.83 10.35-21.4 10.35-20.95L10.35-20.95Q10.6-21.3 10.85-21.58 11.1-21.85 11.35-22.25L11.35-22.25Q14.9-25.6 18.2-29.23 21.5-32.85 25.05-36.25L25.05-36.25 32-36.25Q28.25-32.35 24.58-28.4 20.9-24.45 17.15-20.55L17.15-20.55Q19.25-17.85 21.18-15.33 23.1-12.8 24.98-10.3 26.85-7.8 28.75-5.25 30.65-2.7 32.7 0L32.7 0ZM42.25 0L36.8 0 36.8-36.25 42.25-36.25 42.25-20.85 60.4-20.85 60.4-36.25 65.9-36.25Q65.9-35.6 65.9-33.83 65.9-32.05 65.9-29.6 65.9-27.15 65.9-24.18 65.9-21.2 65.87-18.13 65.85-15.05 65.85-12.08 65.85-9.1 65.85-6.65 65.85-4.2 65.85-2.43 65.85-0.65 65.85 0L65.85 0 60.4 0 60.4-15.65 42.25-15.65 42.25 0Z" opacity="1" transform="matrix(1,0,0,1,0,0)" fill="#000000" class="wordmark-text-0" data-fill-palette-color="primary"></path></svg></g></svg></g></svg></g></svg></g></svg></g></svg></g><defs></defs></svg><rect width="171.95925862041932" height="58.652499999999996" fill="none" stroke="none" visibility="hidden"></rect></g></svg></g></svg>